<svg id="Layer_2" data-name="Layer 2" xmlns="http://www.w3.org/2000/svg" xmlns:xlink="http://www.w3.org/1999/xlink" viewBox="0 0 400 300" data-imageid="consulting-isometric" imageName="Consulting" class="illustrations_image" style="width: 151px;"><defs><linearGradient id="linear-gradient" x1="145.56" y1="239.12" x2="169.35" y2="220.42" gradientUnits="userSpaceOnUse"><stop offset="0" stop-opacity="0"/><stop offset="0.99" stop-color="#006837"/></linearGradient><linearGradient id="linear-gradient-2" x1="222.55" y1="194.76" x2="289.39" y2="127.91" gradientUnits="userSpaceOnUse"><stop offset="0" stop-opacity="0"/><stop offset="1" stop-color="#f15a24"/></linearGradient><linearGradient id="linear-gradient-3" x1="326.81" y1="201.02" x2="357.36" y2="186.83" xlink:href="#linear-gradient"/><linearGradient id="linear-gradient-4" x1="33.85" y1="186.4" x2="61.96" y2="169.66" xlink:href="#linear-gradient"/></defs><title>PP</title><path d="M193.23,287.42,13.5,181.2C7.78,178,2.87,172.71,8.45,169.25l180.37-104c2.71-1.68,6.82-2.78,9.57-1.18L387,173.61c5.72,3.32,6.75,12.6,1,15.93L216.92,287.25A23.9,23.9,0,0,1,193.23,287.42Z" fill="#16a79e"/><polyline points="189.12 233.62 151.26 254.73 114.93 234.45 124.92 226.81 161.11 221.21" fill="url(#linear-gradient)"/><polyline points="283.29 171.59 220.76 207.69 195.56 184.17 234.15 163.27 253.36 152.6 283.29 171.59" fill="url(#linear-gradient-2)"/><polyline points="264.49 145.82 264.49 183.77 267.3 183.77 267.9 144.84" fill="#895851"/><polyline points="280.46 131.22 286.09 172.49 283.27 172.49 277.4 132.75" fill="#895851"/><path d="M223.72,160.07s-2.62,8.58-3.2,9.46-9.17,6.55-9,8.29,3.38,2.47,5.4,2.33,13.66-5,14.38-6.43.73-13.65.73-13.65Z" fill="#5c2d1d"/><path d="M237.52,170.12s-2.62,8.58-3.2,9.46-9.17,6.55-9,8.29,3.38,2.47,5.4,2.33,13.66-5,14.38-6.43.73-13.65.73-13.65Z" fill="#5c2d1d"/><path d="M282,92c-.74,2.09-5,33.74-5,33.74l-4.23-1.42,5.51-32.49" fill="#895851"/><polyline points="280.46 131.22 280.54 126.12 276.03 127.67 277.4 132.75" fill="#a9cbf8"/><path d="M270.26,123.32s11.33,4.35,10.2,8.63-10.18,14.77-16,13.86-12.87-5.95-12.87-5.95" fill="#a9cbf8"/><path d="M270.26,118.11s11.33,4.35,10.2,8.63-10.18,14.77-16,13.86-12.87-5.95-12.87-5.95" fill="#cbe3ff"/><path d="M274.75,78.37s10.95,2.73,12.06,9,1.43,17.93-14.11,13.41-8.21-16.19-8.21-16.19" fill="#cbe3ff"/><path d="M248.24,103.47s-22.41,15.38-25.3,23.21-4.79,38.69-4.79,38.69,7.84,4.87,17,2l6.87-35s16.29-7,19.16-15.66-1-24.94-1-24.94" fill="#895851"/><path d="M260.8,112.47s-22.41,15.38-25.3,23.21-4.79,38.69-4.79,38.69,7.84,4.87,17,2l6.87-35s16.29-7,19.16-15.66-1-24.94-1-24.94" fill="#895851"/><path d="M269.7,112.8c3.82-9.3,7.28-36.28,5-39.25-2.71-3.48-18.11-9.17-18.11-9.17a11.45,11.45,0,0,0-10.5,2.4C242.31,70,245,94.61,246,107,252.58,113,260.3,114.49,269.7,112.8Z" fill="#8cc63f"/><path d="M271.18,53.66c-.77-3.43-3.51-4.63-6.58-4.69a6.61,6.61,0,0,0-2-1.5,7.15,7.15,0,0,0-7.54.77,4.85,4.85,0,0,0-2.43-.2c-2.42.46-3.19,2.77-3.12,4.94,0,.09,0,.17,0,.26-.55,3.72,2.69,6,2.69,6l10.27,8.2a8.55,8.55,0,0,0,3.67-2.22,4.53,4.53,0,0,0,.8-1.41,1.78,1.78,0,0,0,.28-.19C270.1,61.29,272,57.42,271.18,53.66Z" fill="#895851"/><path d="M252.57,56.28c0,1.29-.4,13.38,5.07,13.54s7.46-7.54,7.46-7.54S260.61,60,260.6,58.1s.36-2.61-1.87-3.59S252.52,54.13,252.57,56.28Z" fill="#ffe0ce"/><path d="M249.47,64.75S232.29,72,229.6,84.49c-3.73,17.35,18.69-.84,18.69-.84" fill="#8cc63f"/><path d="M254.3,74.1s.72,7.33-1.57,8.05a18.82,18.82,0,0,0-5.06,3.07l-2.08,16.72L244.36,86,245.82,79Z" fill="#527717"/><path d="M237.57,77.5s8-8.33,9-7.68c2.19,1.45-1.47,4.1-1.47,4.1s9-3.21,9.21.18-11.55,5.43-11.55,5.43l-3.17,2.26" fill="#ffd8c6"/><path d="M238.62,73.43c-1.38-.32-21.72,15.33-13.23,21.26,8.3,5.8,22.27-12.51,22.27-12.51S244.53,74.8,238.62,73.43Z" fill="#8cc63f"/><path d="M253.64,115.58c-4,4-8.35,7.91-12.11,12.2-3.26,3.73-4.54,8.46-5.81,13.15-2.95,10.92-4.26,22.19-5.57,33.39-.08.68,1,.67,1.06,0,1.26-10.78,2.53-21.61,5.27-32.14,1.35-5.16,2.69-10.3,6.39-14.31s7.68-7.71,11.51-11.54A.53.53,0,0,0,253.64,115.58Z" fill="#5c2d1d"/><path d="M245.1,114.32s-10.87,2.61-10.52,3.59,3.93,0,3.93,0-7.29,3-5.8,6.06c1,2,7.89.62,9.76,0s7-5.61,7-5.61Z" fill="#ffd8c6"/><path d="M264.49,84.62s-2.34,16.92-4.11,19.21-20.2,10.4-20.2,10.4,6,2.7,5.88,9.09c0,0,23.21-5.79,25.49-11.12s9.05-32.14,3.13-38.65S264.49,84.62,264.49,84.62Z" fill="#8cc63f"/><path d="M262.32,90.32A63.77,63.77,0,0,1,260.68,99c-.72,2.71-1.22,6-3.9,7.37-5,2.61-10.53,4.55-15.73,6.8-.58.25-.08,1.09.49.85l9.78-4.22c2.35-1,5.89-1.81,7.69-3.74,1.57-1.68,2-4.66,2.61-6.78a65.91,65.91,0,0,0,1.67-8.93C263.37,89.69,262.39,89.7,262.32,90.32Z" fill="#527717"/><polygon points="335.28 183.96 263.82 223.76 283.05 234.45 355.77 193.21 366.39 186.23 335.28 183.96" opacity="0.32" fill="url(#linear-gradient-3)"/><path d="M339.3,169.94a3.77,3.77,0,0,1-1.57-.34l-.24,1.59,25.52.65v-1.9Z" fill="#5b434d"/><path d="M337.72,169.66l-.23,1.53,14.09,8.13v-2C346.83,175,342.25,172.4,337.72,169.66Z" fill="#5b434d"/><path d="M351.95,59.66a4.06,4.06,0,0,1-2.45-.35L333.33,184c1,.6,2,1.13,3,1.7L352.68,59.58Z" fill="#5b434d"/><path d="M355.67,59.52a8.14,8.14,0,0,1-1.77,0c-.48,0-1,0-1.42.07l10.92,127.88a25.92,25.92,0,0,1,2.58-1.09l.43-.22.08,0Z" fill="#5b434d"/><path d="M353.9,59.53a14.67,14.67,0,0,0-1.95.13,4.85,4.85,0,0,1-.77,0l-1.07,135.16h0a3.33,3.33,0,0,1,1.71-.13l.92,0,.54-.05,1.07-135.1Z" fill="#5b434d"/><path d="M336.26,61.68V89.62s32.14,1,32.14,0V61.68" fill="#68e1fd" class="target-color"/><ellipse cx="352.33" cy="61.63" rx="16.07" ry="7.44" fill="#68e1fd" class="target-color"/><ellipse cx="352.33" cy="61.63" rx="16.07" ry="7.44" opacity="0.19"/><ellipse cx="352.33" cy="90.04" rx="16.07" ry="7.44" fill="#68e1fd" class="target-color"/><path d="M232.44,38.81,177.1,7.09a2.33,2.33,0,0,0-3.49,2V29.56a5.59,5.59,0,0,0,2.86,4.87l53.67,30a2.33,2.33,0,0,0,3.47-2V40.83A2.33,2.33,0,0,0,232.44,38.81Z" fill="#68e1fd" class="target-color"/><polyline points="228.49 60.12 228.49 72.11 218.49 57.19" fill="#68e1fd" class="target-color"/><line x1="180.89" y1="17.91" x2="210.26" y2="34.29" fill="#68e1fd" class="target-color"/><path d="M180.13,19.2,209.5,35.58c1.69.94,3.2-1.65,1.51-2.59L181.65,16.61c-1.69-.94-3.2,1.65-1.51,2.59Z" fill="#f2f2f2"/><line x1="179.61" y1="26.1" x2="224" y2="50.85" fill="#68e1fd" class="target-color"/><path d="M178.85,27.39l44.39,24.76c1.69.94,3.2-1.65,1.51-2.59L180.37,24.8c-1.69-.94-3.2,1.65-1.51,2.59Z" fill="#f2f2f2"/><path d="M132.12,132.34c.07,20.31.18,38.59.18,38.59s.43,1.65,3.49.3V131.15C134.57,131.56,133.34,131.95,132.12,132.34Z" fill="#5b434d"/><path d="M217,181.73c.07,20.31.18,38.59.18,38.59s.43,1.65,3.49.3V180.54C219.48,181,218.26,181.34,217,181.73Z" fill="#5b434d"/><path d="M269.35,151c.07,20.31.18,38.59.18,38.59s.43,1.65,3.49.3V149.77C271.79,150.18,270.57,150.57,269.35,151Z" fill="#5b434d"/><polyline points="131.41 131.15 131.41 134.6 219.04 185.31 272.93 149.91 273.01 146.05" fill="#68e1fd" class="target-color"/><polyline points="131.41 131.15 131.41 134.6 219.04 185.31 272.93 149.91 273.01 146.05" fill="#06489e" opacity="0.36"/><polygon points="131.41 131.15 187.79 98.99 273.01 146.05 218.73 181.84 131.41 131.15" fill="#68e1fd" class="target-color"/><polyline points="211.22 128.31 211.22 129.36 210.7 130.02" fill="#adcee1"/><path d="M190.06,115.61l20.56,12.63a1.27,1.27,0,0,1,0,2.19l-31,17.73a2.85,2.85,0,0,1-2.85,0l-20.46-11.92c-1.49-1.21-1.39-3.51,0-3.61l30.87-17A2.89,2.89,0,0,1,190.06,115.61Z" fill="#88d3d8"/><path d="M190.06,114.74l20.56,12.63a1.27,1.27,0,0,1,0,2.19l-31,17.73a2.85,2.85,0,0,1-2.85,0l-20.46-11.92a1.58,1.58,0,0,1,0-2.73l30.86-17.91A2.89,2.89,0,0,1,190.06,114.74Z" fill="#fff"/><path d="M189.21,113s-8.63-27.45-8.57-27.45-.27-1.22-1.79-.52l-32.6,19.37s-1.58.65-1.27,2.12,8.43,26.86,8.43,26.86a1.38,1.38,0,0,0,1.55.53c1-.31,33.49-19.37,33.49-19.37A1.25,1.25,0,0,0,189.21,113Z" fill="#053855"/><polygon points="180.11 87.55 146.72 107.2 153.76 130.47 187.57 111.41 180.11 87.55" fill="#68e1fd" class="target-color"/><path d="M191.33,117.64l7.52,4.64a.9.9,0,0,1,0,1.55L172,139.29a2.65,2.65,0,0,1-2.64,0c-1.73-1-4.72-2.81-6.55-3.92a1.1,1.1,0,0,1,0-1.89l27-15.86A1.46,1.46,0,0,1,191.33,117.64Z" fill="#68e1fd" class="target-color"/><path d="M191,130.32l-9.38,5.33a.94.94,0,0,0,0,1.63l5.54,3.21a1.25,1.25,0,0,0,1.25,0L198,135a.79.79,0,0,0,0-1.36l-5.76-3.28A1.25,1.25,0,0,0,191,130.32Z" fill="#68e1fd" class="target-color"/><path d="M191.33,117.64l7.52,4.64a.9.9,0,0,1,0,1.55L172,139.29a2.65,2.65,0,0,1-2.64,0c-1.73-1-4.72-2.81-6.55-3.92a1.1,1.1,0,0,1,0-1.89l27-15.86A1.46,1.46,0,0,1,191.33,117.64Z" fill="#053855" opacity="0.1"/><path d="M191,130.32l-9.38,5.33a.94.94,0,0,0,0,1.63l5.54,3.21a1.25,1.25,0,0,0,1.25,0L198,135a.79.79,0,0,0,0-1.36l-5.76-3.28A1.25,1.25,0,0,0,191,130.32Z" fill="#053855" opacity="0.1"/><path d="M166.72,207.83c-.05.58-.46,7.62.32,8.44s2.84,4.79,5.39,5,4.92-.34,5.39,2.4-14.47,3.65-14.47,3.65-1.57-6.26-2.24-6.07-.65,6.9-.65,6.9l-2.77.6-2.77-1.85,1.12-12,1.81-10.18" fill="#895851"/><path d="M177.92,217.89c-.37,4.24-.15,9.92,3.84,12.5,2.18,1.41,6.79.11,7.36,3.23.49,2.73-14.44,3.74-14.44,3.74s-1.61-6.25-2.28-6.06-.6,6.91-.6,6.91l-2.77.61L166.24,237l1-12L169,214.8" fill="#895851"/><path d="M171.34,140.85l2-2.61a1.54,1.54,0,0,0-1.44-2.42,9.44,9.44,0,0,0,.92-2.29,1.48,1.48,0,0,0-2.56-1.19l-3.28,4.38,1.66-2.88c.94-1.64-1.72-2.87-2.65-1.25l-2.82,4.89-.06-1.41c-.06-1.29-.25-2.92-1.89-3a1.52,1.52,0,0,0-1.69,1.19,6.86,6.86,0,0,0,.07,3.28c.27,1.17,1,2.78.34,3.91l-3.32,5.17a1.47,1.47,0,0,0,1,2.35,1.51,1.51,0,0,0,2,1.27,1.4,1.4,0,0,0,1,.21,1.36,1.36,0,0,0,1.69.41,1.46,1.46,0,0,0,2.46.43c2.36-2.84,5.49-4.95,7.63-8A1.59,1.59,0,0,0,171.34,140.85Z" fill="#edbab9"/><path d="M139.56,160.35a8.47,8.47,0,0,0,7.55,5.82c6,.34,17.29-12.26,17.29-12.26s.31-11.23-4.64-13.17c0,0-8.2,7.07-9.33,7.15s-7.78-6.17-7.78-6.17" fill="#5f6060"/><path d="M174,141.87l1.48-2.91a1.54,1.54,0,0,0-1.83-2.14,9.44,9.44,0,0,0,.52-2.41,1.48,1.48,0,0,0-2.73-.74L169,138.55l1.15-3.13c.65-1.77-2.18-2.54-2.83-.78l-1.94,5.29-.31-1.38c-.28-1.26-.75-2.83-2.37-2.63a1.52,1.52,0,0,0-1.47,1.47,6.86,6.86,0,0,0,.63,3.22c.46,1.1,1.47,2.56,1,3.79l-2.39,5.66a1.47,1.47,0,0,0,1.35,2.15,1.51,1.51,0,0,0,2.19.91,1.4,1.4,0,0,0,1,0,1.36,1.36,0,0,0,1.73.11,1.46,1.46,0,0,0,2.5,0c1.84-3.2,4.56-5.81,6.15-9.17A1.59,1.59,0,0,0,174,141.87Z" fill="#ffe0de"/><path d="M153.45,202.41l-2.2,12s3.45,3.54,15.07,3.12,0-21.21,0-21.21" fill="#edbab9"/><ellipse cx="138.37" cy="230.38" rx="16.54" ry="6.14" fill="#895851"/><polyline points="135.59 202.9 136.23 227.63 141.16 227.63 141.16 202.9" fill="#895851"/><path d="M170.18,167.21q-7.43,1.62-15,2.51a.84.84,0,0,0-.57.31q-.87-2.61-1.48-5.31c-.23-1-1.8-.59-1.57.43a56.7,56.7,0,0,0,4.1,11.84c.45.95,1.85.12,1.41-.82-.75-1.58-1.41-3.19-2-4.82h.11q7.77-.91,15.42-2.57C171.63,168.55,171.2,167,170.18,167.21Z" fill="#008074"/><path d="M156.8,178.68a21.86,21.86,0,0,1-5,5.76c-.81.66.34,1.81,1.15,1.15a23.12,23.12,0,0,0,5.27-6.09A.81.81,0,0,0,156.8,178.68Z" fill="#008074"/><path d="M146.66,173.39s13-10.4,21.57-11.63,13.1,8.11,12.48,14.36-21.22,9.67-21.22,9.67" fill="#edbab9"/><path d="M153.57,176.85c1.68-1.56,23.68-11.83,31.43-7.14s7.26,8.16,6.28,13.87-8.47,36.48-8.47,36.48-7.4,3.47-17.6.83L167.39,198l-29.31-16" fill="#ffe0de"/><path d="M137.53,140.09c1.17.86,11.21,2.07,13.3,6.7s5.29,28.51,5.29,28.51-6,9-16.47,5.79c-3.1-.95-19.16-30.3-19.59-33.35C118.95,139.79,137.53,140.09,137.53,140.09Z" fill="gray"/><path d="M117.72,191.67a26.28,26.28,0,0,1-1.25-3.72c-2.46-9.66-4.08-45.9,12.22-44.43,17.88,1.62,11.83,46.39,30,45s25.54,3.34,18.13,10.36C162,212.92,126.81,213.24,117.72,191.67Z" fill="#a6b1f7"/><path d="M143.95,127.6c.12.73,1.42,11.12-1.67,13.45s-10-3.18-10.14-5.93-2.5-8.45.43-9.89S143.13,122.48,143.95,127.6Z" fill="#ffe0de"/><path d="M146.66,167.1a8.47,8.47,0,0,0,8.53,4.25c5.92-.82,14.59-15.37,14.59-15.37s-1.87-11.08-7.1-12c0,0-6.68,8.52-7.78,8.82s-4.08-6-4.08-6" fill="gray"/><path d="M143.29,144.81c-1.31-.89-3.15-1.6-2.74-3.43.35-1.53,1.93-2.66,2-4.3a6,6,0,0,0-1.69-4.27c-.69-.71-1.55-1.11-1.08-2.23a4.39,4.39,0,0,1,1.71-1.74l3.37.2s2.34-5.78-3.81-9.4c-3.94-2.31-10.42-1.74-13.69,1.59a16.28,16.28,0,0,0-2.27,3.14,12.48,12.48,0,0,1-2.93,3.81,5.22,5.22,0,0,0-2.5,3.74,6.78,6.78,0,0,0,1.14,4.23c.86,1.65-.51,2.73-1.6,3.88a6.81,6.81,0,0,0-2.23,4.16,26.74,26.74,0,0,0,2,10.34c1.77,4.54,6.91,6.38,11.46,5.68,3.92-.6,19.23-10,13.42-15A5.4,5.4,0,0,0,143.29,144.81Z" fill="#e5a025"/><path d="M36.66,194.52l33-18.72L50.25,167,20.86,183.41C25.42,187.88,31.24,191,36.66,194.52Z" fill="url(#linear-gradient-4)"/><polyline points="42.84 156.41 42.84 172.99 69.67 172.99 69.67 156.41" fill="#68e1fd" class="target-color"/><ellipse cx="56.26" cy="156.41" rx="13.41" ry="6.6" fill="#68e1fd" class="target-color"/><ellipse cx="56.26" cy="156.41" rx="13.41" ry="6.6" opacity="0.19"/><ellipse cx="56.26" cy="173.64" rx="13.41" ry="6.6" fill="#68e1fd" class="target-color"/><path d="M71.27,117.86c-2.83-1.16-6.76-5-10.18-4.89-1.3,3.2-1.69,6.93-2.07,10.18a92.35,92.35,0,0,0-.39,17q.12,1.89.31,3.77a3,3,0,0,0,.3,1.06q0,6.56,0,13.13a.42.42,0,0,0,.83,0q0-6.31,0-12.63a18.61,18.61,0,0,0,3.84-1.77,13.07,13.07,0,0,0,5.4-6.79c2.17-6,.8-12.76,2.85-18.72C71.87,118.09,71.57,118,71.27,117.86Z" fill="#297600"/><path d="M65.47,108a10.51,10.51,0,0,0-3.83,3.92,6.57,6.57,0,0,0-.6,1.16l-.12.25h0a17.53,17.53,0,0,0-.64,2.08,2.59,2.59,0,0,1,1.43-1.13,3.55,3.55,0,0,1,2.24-.21A9.38,9.38,0,0,1,66,115.16c1,.58,1.88,1.23,2.82,1.83,4.45,2.82,10.36,3.11,13.79-1,0-.16.09-.33.12-.5C83.24,112.68,75.3,102.27,65.47,108Z" fill="#5fad00"/><path d="M80.64,117.74l.55-.37a.38.38,0,0,0-.11-.32c-2.69-2.76-5.57-5.46-9.24-6.82a15.84,15.84,0,0,0-8.25-.81c-.3.35-.57.71-.84,1.08,3-1,6.77-.37,9.49.79,3.25,1.39,5.83,3.86,8.26,6.36A.4.4,0,0,0,80.64,117.74Z" fill="#297600"/><path d="M35.62,123.75a11.2,11.2,0,0,0-6,10.74c.32,7.92,13.36.19,16.82-6.49s4,2.85,4,2.85" fill="#297600"/><path d="M47.35,121a23.61,23.61,0,0,0-7.24,1,17.56,17.56,0,0,0-4.5,1.76,14.53,14.53,0,0,0,2.61,1.39c1.63.66,3.35,1.48,4.21,3a6,6,0,0,1,.5,1.19c.8,2.6.11,5.76,1.18,8.38s3.26,4.93,6.33,5.12c3.67.22,5.36-3.3,6.09-6.36s1.72-7.22.56-10.36C55.75,122.47,50.83,121.15,47.35,121Z" fill="#5fad00"/><path d="M52.19,133.34c-1.54-5-4.81-9.72-9.6-11.93h-.18l-.23.07-.87.22c5.57,2.07,9.07,7.56,10.5,13.18,1.83,7.18,1.21,15,1.23,22.31a.39.39,0,0,0,.77,0C53.81,149.35,54.54,140.93,52.19,133.34Z" fill="#297600"/></svg>